<svg width="49" height="49" viewBox="0 0 49 49" fill="none" xmlns="http://www.w3.org/2000/svg">
<path d="M10.2083 6.12499L10.2083 42.875C10.2095 43.2471 10.3121 43.6118 10.5051 43.9299C10.6981 44.248 10.9743 44.5074 11.3038 44.6802C11.6333 44.8531 12.0037 44.9328 12.3751 44.9107C12.7465 44.8887 13.1049 44.7658 13.4117 44.5553L39.9533 26.1803C41.0538 25.4187 41.0538 23.5853 39.9533 22.8217L13.4117 4.44674C13.1055 4.23405 12.747 4.10932 12.3749 4.08611C12.0029 4.0629 11.6316 4.14209 11.3014 4.31508C10.9712 4.48807 10.6947 4.74825 10.502 5.06733C10.3093 5.38642 10.2077 5.75222 10.2083 6.12499Z" fill="#646464"/>
</svg>
