<svg width="49" height="49" viewBox="0 0 49 49" fill="none" xmlns="http://www.w3.org/2000/svg">
<path d="M38.7917 42.875V6.12501C38.7905 5.75293 38.6879 5.38822 38.4949 5.07013C38.3018 4.75203 38.0257 4.49261 37.6962 4.31977C37.3667 4.14694 36.9963 4.06724 36.6249 4.08926C36.2535 4.11127 35.8951 4.23417 35.5883 4.44471L9.04663 22.8197C7.94617 23.5813 7.94617 25.4147 9.04663 26.1783L35.5883 44.5533C35.8944 44.7659 36.253 44.8907 36.625 44.9139C36.9971 44.9371 37.3684 44.8579 37.6986 44.6849C38.0288 44.5119 38.3052 44.2518 38.498 43.9327C38.6907 43.6136 38.7923 43.2478 38.7917 42.875Z" fill="#646464"/>
</svg>
