<svg width="46" height="13" viewBox="0 0 46 13" fill="none" xmlns="http://www.w3.org/2000/svg">
<g clip-path="url(#clip0_5_20)">
<path d="M8.86722 5.54717H4.99855C4.95058 5.54721 4.90459 5.56708 4.87068 5.6024C4.83677 5.63771 4.81772 5.68559 4.81769 5.73553V7.70451C4.81769 7.80842 4.89873 7.89296 4.99846 7.89296H6.50774V10.3393C6.50774 10.3393 6.16885 10.4596 5.23196 10.4596C4.12661 10.4596 2.58247 10.0391 2.58247 6.50458C2.58247 2.96933 4.1904 2.50423 5.69987 2.50423C7.00646 2.50423 7.56943 2.74365 7.92754 2.85906C8.04012 2.89498 8.14425 2.77835 8.14425 2.67435L8.57577 0.771863C8.57577 0.72323 8.55995 0.664683 8.50668 0.624935C8.36122 0.516914 7.47383 0 5.23187 0C2.64931 0 0 1.14381 0 6.64244C0 12.1413 3.03312 12.9606 5.58918 12.9606C7.70545 12.9606 8.98923 12.0192 8.98923 12.0192C9.04223 11.9888 9.04789 11.9118 9.04789 11.8765V5.73553C9.04789 5.63171 8.96695 5.54717 8.86722 5.54717ZM28.7947 0.688252C28.7947 0.583504 28.7149 0.498957 28.6151 0.498957H26.4367C26.4129 0.499055 26.3894 0.504029 26.3674 0.513595C26.3455 0.523161 26.3256 0.537132 26.3088 0.55471C26.2921 0.572287 26.2788 0.593128 26.2698 0.616041C26.2608 0.638954 26.2562 0.663491 26.2563 0.688252L26.2568 5.07047H22.8615V0.688345C22.8615 0.583597 22.7813 0.49905 22.6817 0.49905H20.5032C20.4553 0.499323 20.4094 0.519416 20.3756 0.554913C20.3419 0.59041 20.323 0.638405 20.3233 0.688345V12.5541C20.3233 12.6588 20.4041 12.7439 20.5032 12.7439H22.6815C22.7811 12.7439 22.8612 12.6588 22.8612 12.5541V7.47865H26.2567L26.2507 12.554C26.2507 12.6587 26.3316 12.7438 26.4311 12.7438H28.6147C28.7144 12.7438 28.7942 12.6587 28.7944 12.554L28.7947 0.688252ZM12.9707 2.27472C12.9707 1.45824 12.3418 0.798331 11.566 0.798331C10.791 0.798331 10.1616 1.45815 10.1616 2.27472C10.1616 3.09026 10.791 3.75195 11.566 3.75195C12.3418 3.75195 12.9707 3.09026 12.9707 2.27472ZM12.7979 10.0571V4.57993C12.798 4.53 12.7791 4.48204 12.7453 4.44661C12.7115 4.41117 12.6656 4.39114 12.6177 4.39091H10.4462C10.3466 4.39091 10.2576 4.49791 10.2576 4.60191V12.4491C10.2576 12.6798 10.3956 12.7483 10.5743 12.7483H12.5306C12.7453 12.7483 12.7979 12.6386 12.7979 12.4454V10.0571ZM37.12 4.39101H34.9584C34.8592 4.39101 34.7785 4.47602 34.7785 4.58068V10.3989C34.7785 10.3989 34.2294 10.8171 33.4499 10.8171C32.6704 10.8171 32.4637 10.4489 32.4637 9.65451V4.58077C32.4637 4.47602 32.3831 4.39091 32.2839 4.39091H30.09C29.991 4.39091 29.9099 4.47602 29.9099 4.58077V10.0387C29.9099 12.3984 31.1734 12.9757 32.9114 12.9757C34.3372 12.9757 35.4868 12.1557 35.4868 12.1557C35.4868 12.1557 35.5416 12.5878 35.5663 12.6391C35.5911 12.6902 35.6556 12.7418 35.7253 12.7418L37.121 12.7354C37.22 12.7354 37.3011 12.6502 37.3011 12.546L37.3004 4.58068C37.3006 4.53064 37.2817 4.48256 37.2479 4.447C37.2141 4.41144 37.1681 4.3913 37.12 4.39101ZM42.1005 10.8216C41.3508 10.7979 40.8422 10.4437 40.8422 10.4437V6.68593C40.8422 6.68593 41.3439 6.36579 41.9595 6.30855C42.7379 6.23598 43.488 6.48073 43.488 8.41381C43.488 10.4522 43.1494 10.8545 42.1005 10.8216ZM42.9531 4.13606C41.7254 4.13606 40.8903 4.70628 40.8903 4.70628V0.688252C40.8905 0.663534 40.886 0.639024 40.877 0.616126C40.8681 0.593229 40.8549 0.572392 40.8382 0.554809C40.8215 0.537227 40.8016 0.523243 40.7798 0.513659C40.7579 0.504075 40.7344 0.499079 40.7106 0.498957H38.5261C38.5023 0.499067 38.4788 0.504052 38.4569 0.513627C38.435 0.523202 38.4151 0.537179 38.3984 0.55476C38.3816 0.57234 38.3684 0.593178 38.3594 0.616084C38.3505 0.638989 38.3459 0.663513 38.346 0.688252V12.554C38.346 12.6587 38.4267 12.7438 38.5263 12.7438H40.042C40.1103 12.7438 40.162 12.7074 40.2001 12.6431C40.2378 12.5793 40.2921 12.096 40.2921 12.096C40.2921 12.096 41.1854 12.9772 42.8763 12.9772C44.8615 12.9772 46 11.9289 46 8.27146C46 4.61397 44.1817 4.13606 42.9531 4.13606ZM19.0674 4.37043H17.4335L17.4309 2.1233C17.4309 2.03829 17.3889 1.99573 17.2944 1.99573H15.0677C14.9811 1.99573 14.9346 2.03539 14.9346 2.12199V4.44422C14.9346 4.44422 13.8188 4.72461 13.7433 4.74724C13.7057 4.75857 13.6726 4.78235 13.649 4.81498C13.6255 4.84761 13.6128 4.88732 13.6129 4.92812V6.3874C13.6129 6.49233 13.6934 6.57697 13.793 6.57697H14.9346V10.0875C14.9346 12.695 16.6916 12.9512 17.8773 12.9512C18.419 12.9512 19.0671 12.77 19.1741 12.729C19.2388 12.7042 19.2763 12.6345 19.2763 12.5587L19.2781 10.9535C19.2781 10.8488 19.1932 10.7641 19.0975 10.7641C19.0023 10.7641 18.7588 10.8044 18.508 10.8044C17.7054 10.8044 17.4335 10.4159 17.4335 9.91311L17.4334 6.57706H19.0674C19.0913 6.57697 19.1148 6.57198 19.1368 6.56239C19.1587 6.5528 19.1786 6.53879 19.1954 6.52117C19.2121 6.50355 19.2254 6.48266 19.2343 6.45971C19.2433 6.43675 19.2478 6.41218 19.2477 6.3874V4.55963C19.2477 4.45488 19.1671 4.37043 19.0674 4.37043Z" fill="#11110F"/>
</g>
<defs>
<clipPath id="clip0_5_20">
<rect width="46" height="13" fill="white"/>
</clipPath>
</defs>
</svg>
